<?xml version="1.0" standalone="no"?>
<!DOCTYPE svg PUBLIC "-//W3C//DTD SVG 20010904//EN"
 "http://www.w3.org/TR/2001/REC-SVG-20010904/DTD/svg10.dtd">
<svg version="1.0" xmlns="http://www.w3.org/2000/svg"
 width="2048.000000pt" height="2048.000000pt" viewBox="0 0 2048.000000 2048.000000"
 preserveAspectRatio="xMidYMid meet">
<metadata>
Created by potrace 1.11, written by Peter Selinger 2001-2013
</metadata>
<g transform="translate(0.000000,2048.000000) scale(0.100000,-0.100000)"
fill="#000000" stroke="none">
<path d="M0 10240 l0 -10240 10240 0 10240 0 0 10240 0 10240 -10240 0 -10240
0 0 -10240z m10270 8215 c0 -463 1 -496 18 -501 9 -2 52 -22 95 -44 l78 -40
416 240 c229 132 419 240 423 240 4 0 12 -11 18 -24 10 -23 2 -29 -393 -257
-339 -196 -401 -235 -387 -244 9 -7 464 -270 1010 -585 546 -315 1007 -587
1024 -604 50 -49 68 -100 68 -193 l0 -83 38 -24 c20 -13 405 -236 856 -496
l818 -472 32 30 c51 48 94 66 166 66 49 0 76 -5 110 -23 45 -23 175 -98 1390
-800 l625 -360 3 469 2 470 30 0 30 0 0 -490 0 -490 38 -19 c127 -65 172 -134
180 -273 l5 -87 418 -242 418 -241 -16 -24 c-8 -13 -16 -24 -17 -24 -2 0 -182
104 -401 230 -219 127 -400 230 -401 230 -2 0 -4 -1597 -4 -3550 0 -1952 2
-3550 4 -3550 1 0 182 104 401 230 219 127 399 230 400 230 2 0 10 -11 18 -24
l16 -24 -418 -241 -418 -242 -5 -87 c-8 -139 -53 -208 -180 -273 l-38 -19 0
-490 0 -490 -30 0 -30 0 -2 470 -3 469 -3075 -1775 c-1691 -976 -3075 -1776
-3077 -1777 -1 -2 180 -108 402 -236 395 -228 403 -234 393 -257 -6 -13 -14
-24 -18 -24 -4 0 -194 108 -423 240 l-416 240 -78 -40 c-43 -22 -86 -42 -95
-44 -17 -5 -18 -38 -18 -501 l0 -495 -30 0 -30 0 0 495 c0 463 -1 496 -17 501
-10 2 -53 22 -96 44 l-78 40 -416 -240 c-229 -132 -419 -240 -423 -240 -4 0
-12 11 -18 24 -10 23 -2 29 393 257 222 128 403 235 401 236 -2 2 -1387 802
-3077 1778 l-3074 1775 -3 -470 -2 -470 -30 0 -30 0 0 489 0 489 -48 27 c-127
74 -162 128 -170 267 l-5 88 -413 237 c-227 131 -414 243 -414 249 0 5 6 18
13 27 11 16 49 -3 411 -213 219 -126 401 -230 402 -230 2 0 4 1598 4 3550 0
1953 -2 3550 -4 3550 -1 0 -183 -104 -402 -230 -362 -210 -400 -229 -411 -213
-7 9 -13 22 -13 27 0 6 187 118 414 249 l413 238 5 87 c8 139 43 193 171 267
l47 27 0 489 0 489 30 0 30 0 2 -470 3 -470 980 566 c539 311 1003 578 1030
592 39 21 64 26 115 26 72 0 115 -18 166 -66 l32 -30 818 472 c451 260 836
483 857 496 l37 24 0 83 c0 93 18 144 67 193 17 16 485 293 1042 614 858 495
1008 585 993 595 -9 6 -191 112 -404 234 -378 218 -386 224 -376 247 6 13 14
24 18 24 4 0 194 -108 423 -240 l416 -240 78 40 c43 22 86 42 96 44 16 5 17
38 17 501 l0 495 30 0 30 0 0 -495z"/>
<path d="M9268 16859 l-938 -541 0 -571 c0 -412 -3 -581 -12 -610 -25 -84 -56
-105 -703 -478 -335 -193 -833 -480 -1105 -637 l-495 -286 -68 -4 c-91 -6
-143 15 -200 78 -24 26 -49 66 -55 88 -8 28 -12 164 -12 462 0 354 -2 421 -14
417 -12 -5 -650 -372 -1386 -798 l-255 -148 0 -3591 0 -3591 265 -154 c146
-84 1536 -887 3090 -1784 l2825 -1631 3 3580 c1 1969 1 5191 0 7160 l-3 3580
-937 -541z"/>
<path d="M10270 10241 l0 -7161 38 19 c20 11 1412 814 3092 1784 l3055 1765 0
3592 0 3592 -820 474 c-451 261 -823 474 -827 474 -5 0 -8 -190 -8 -421 0
-297 -4 -433 -12 -461 -6 -22 -31 -62 -55 -88 -57 -63 -109 -84 -200 -78 l-68
4 -1105 637 c-1171 676 -1172 676 -1198 764 -9 29 -12 198 -12 611 l0 570
-897 518 c-494 285 -917 529 -940 542 l-43 24 0 -7161z"/>
<path d="M6995 15800 c-669 -386 -829 -483 -826 -497 2 -10 7 -215 10 -456 l6
-438 813 470 c446 258 819 474 827 481 13 11 15 75 15 466 0 250 -3 454 -7
454 -5 0 -381 -216 -838 -480z"/>
<path d="M12640 15827 c0 -420 1 -455 18 -469 9 -8 202 -121 427 -250 226
-130 590 -340 810 -467 l400 -231 6 438 c3 240 8 445 10 455 3 14 -157 111
-826 497 -456 264 -833 480 -837 480 -5 0 -8 -204 -8 -453z"/>
</g>
</svg>
